<svg xmlns="http://www.w3.org/2000/svg" width="1920" height="70.701" viewBox="0 0 1920 70.701">
  <path id="路径_1057" data-name="路径 1057" d="M1918.885,686.253l-.353-.091-10.182,2.95-10.186-2.807-10.19.109-10.194,1.319-10.2,2.272-10.2-4.1-10.208,3.635-10.212-2.185-10.217-.6-10.219,1.323-10.216-1.118-10.211,2.711-10.208-.551-10.2.582-10.2.6-10.2-1.606-10.194,2.852-10.191-3.089-10.188,1.354-10.185-.307-10.182,2.835-10.179-.613-10.177.774-10.174-.412-10.172-2.406-10.17.9-10.167.5-10.165.224-10.163-1.543-10.162.367-10.16.529-10.158-.392-10.157,1.8-10.156-1.515-10.155.883-10.153-.949-10.152,1.1-10.152.327-10.151-.987-10.151,1.4-10.15,2.369-10.15-.595-10.15.46-10.15-2.825-10.15,1.6-10.15-.811-10.15,1.47-10.151-.743-10.152.7-10.153,1.33-10.154-2.685-10.154.927-10.156,2.425-10.157-1.485-10.159,2.2-10.161-.571-10.163,1.877-10.165-3.687-10.167,3.166-10.17.669-10.172-3.333-10.175,2.274-10.177,1.451-10.181-2.322-10.184,1.56-10.187-2.394-10.191.275-10.195,1.579-10.2-.894-10.2,1.778-10.207,1.973-10.212-.126-10.217-2.182-10.222.816-10.227.251-10.232-2.183-10.237,2.547-10.237-.9-10.232-1.256-10.228,4.092-10.224-3.85-10.22,1.657-10.216.951-10.213-1.213-10.209-.174-10.206,1.062-10.2,2.677-10.2-1.442-10.2-1.347-10.2,2.4-10.195.007-10.193-1.233-10.192-.972-10.19,1.9L951,700.219l-10.189,2.627-10.189-.007-10.188-2.07L910.246,702.3l-10.189-1.352-10.19.208-10.191-.122-10.192.976-10.194,1.321-10.2-.779-10.2.29-10.2,2.491-10.2-1.793-10.206,1.537-10.21-1.9-10.213,2.249-10.218-.113-10.222.267L757.2,703.164l-10.231-.623-10.237,4.253-10.243-1.325-10.249-1.556-10.247,1.709-10.242-.892-10.237,1.116-10.233,1.167-10.229-2.755-10.226.266-10.222-.019-10.22,2.4-10.217-.545-10.216.031-10.214-1.169H593.521l-10.213,2.822-10.213-.17-10.213-1.3-10.214.479-10.216,2.035-10.217-2.6-10.219,1.372-10.223-1.2-10.226,1.8-10.23-1.853L481.1,708.4l-10.24.187L460.618,707.2l-10.252,2.512-10.258.911-10.252-.434-10.247-2.741-10.242,2.833-10.238-2.482-10.235,1.888-10.232-1.771-10.23.383L358.2,712.07l-10.228-1.044-10.228.536-10.23-.978-10.232,2.457-10.235-.417-10.238-3.047-10.242-.19-10.248,3.766-10.254-3-10.261,1.722-10.259-1.729-10.253,1.92-10.248,2.073-10.244-3-10.242-.406-10.24,3.027-10.181-.988-10.192,1.288-10.2-.865-10.217,1.419-10.231-2.5-10.247,1.047-10.264,2.351-10.262-1.038-10.249,1.633-10.237-1.3-10.227-.154L71.593,713.52,61.381,715.2l-10.207-.339-10.2-1.14-10.2.577-10.2-.714-10.208,1.385L.14,714.612l-1.255-.029v41.138L5.6,752.852,15.792,754.8l10.19-2.2,10.189.851,10.188,3.164,10.186-4.419,10.185-.233,10.184.959L87.1,755.671l10.182-1.143,10.181-3.061,10.18,2.624,10.179-.514,10.178.988,10.177-1.365,10.176,1.325,10.175.338L178.7,750.61l10.174,2.433,10.173-.218,10.172-2.134,10.171,1.317,10.17.129,10.17.221L249.9,752.1l10.169.756,10.168-2.956,10.167,1.337,10.167.605,10.166.7,10.166-.056,10.165-1.729,10.165.9,10.165-1.763,10.164,1.309,10.164-2.517,10.164.88,10.164-.809,10.163,1.3,10.163-.467,10.163-2.536,10.162.07,10.162.015,10.162,2.415,10.163-1.9,10.162-.084,10.162,1.419,10.162,1.112,10.162-2.137L504,747.544l10.162-2.254,10.163,4.3,10.163-2.605,10.163.369,10.163-1.6,10.164,3.127,10.164-1.266,10.164.228,10.165-.294,10.165-.973L615.8,744.4l10.166-.441,10.167.321,10.167,2.848,10.167-3.1,10.168,1.186,10.169-.659,10.17-.945,10.17.94,10.171-1.639,10.172.443,10.173.132,10.174-.953,10.174,3.415,10.175-.088,10.176-.763,10.177-1.08,10.178-2.387,10.18-.113,10.18.62,10.182,2.005,10.183-.206,10.184-2.407,10.185-.754,10.187,1.3,10.188-1.54,10.19.93L890.57,740l10.193,2.423,10.194-.741,10.2-1.482,10.2,1.1,10.2.509,10.2.452,10.2-1.988,10.2,2.5,10.206-.324,10.207-1.147,10.209-2.657,10.209-.1,10.207,3.031,10.206-2.639,10.2,2.723,10.2-4.263,10.2,1.032,10.2-1.205,10.2,3.356,10.2-.554,10.2-.482,10.195-2.077,10.193,3.1,10.192-1.93,10.191-2.619,10.19,1.7,10.189.919,10.188-1.524,10.187.507,10.186-.988,10.186,2.213,10.185-1.046,10.184.1,10.183.492,10.182-1.773,10.182,1.741,10.182-2.571,10.181,1.847,10.18.1,10.18-3.124,10.18,3.19,10.179-4.28,10.179,1.339,10.179,1.69,10.179-1.653,10.179-1.239,10.179.641,10.179.278,10.179,2.048,10.179-2.942,10.179-.475,10.179-1.359,10.179,2.552,10.18-1.538,10.18,2.576,10.18-.964,10.181.87,10.181-.117,10.182-1.827,10.182.564,10.183.067,10.184-.787,10.185-2.7,10.186,1.613,10.187-.279,10.187.339,10.189-.385,10.19-2.036,10.191.588,10.192.509,10.194.64,10.194-2.518,10.2,1.958,10.2-.9,10.2-.2,10.2-.107,10.2,1.293,10.2-1.1,10.206.854,10.208-1.192,10.209,1.28,10.211-1.7,10.213.807,10.215-.221,10.213-2.344,10.211-.324,10.209-.556,10.208,2.87,10.206-1.783,10.205.8,10.2-1.511,10.2,2.382,10.2-3.445,10.2,3.616,10.2-.083,10.2-2.486,10.2.767,10.2-1.956,10.195-.5,10.194,3.2,9-.08Z" transform="translate(1.115 -685.907)" fill="#CAE296"/>
</svg>
