<svg xmlns="http://www.w3.org/2000/svg" width="284" height="73" viewBox="0 0 284 73" preserveAspectRatio="none">
  <g id="组_517" data-name="组 517" transform="translate(-105.945 -603.564)">
    <rect id="矩形_14560" data-name="矩形 14560" width="280.944" height="69.658" transform="translate(107.638 604.919)" fill="#fff900"/>
    <path id="路径_1059" data-name="路径 1059" d="M388.607,603.9l-.052-.023-1.5.678-1.5-.716-1.5-.01-1.5.283-1.5.513-1.5-1.029-1.5.843-1.5-.566-1.5-.182-1.5.283-1.5-.307-1.5.62-1.5-.17-1.5.1-1.5.108-1.5-.426-1.5.654-1.5-.785-1.5.291-1.5-.111-1.5.65-1.5-.185-1.495.151-1.494-.137-1.494-.619-1.494.181-1.493.085-1.493.018-1.493-.41-1.493.052-1.492.091-1.492-.132-1.492.4-1.492-.4-1.491.177L334.7,603.6l-1.491.23-1.491.042-1.491-.276-1.491.3-1.491.537-1.491-.181-1.491.075-1.491-.721-1.491.351-1.491-.233-1.491.319-1.491-.216-1.491.133-1.491.285-1.491-.687-1.492.188-1.492.551-1.492-.4-1.492.5-1.492-.175-1.493.418-1.493-.93-1.493.73-1.494.125-1.494-.844-1.495.514-1.495.315-1.5-.6-1.5.341-1.5-.616-1.5.03-1.5.345-1.5-.253-1.5.394-1.5.441-1.5-.067-1.5-.565-1.5.161-1.5.024-1.5-.565-1.5.58-1.5-.255-1.5-.341-1.5.954-1.5-.969-1.5.364-1.5.193-1.5-.331-1.5-.079-1.5.22-1.5.611-1.5-.386-1.5-.363-1.5.545-1.5-.035-1.5-.335-1.5-.272-1.5.423-1.5-.36-1.5.6-1.5-.038-1.5-.538-1.5.335-1.5-.364-1.5.014-1.5-.066-1.5.2-1.5.283-1.5-.226-1.5.033-1.5.566-1.5-.471-1.5.335-1.5-.5-1.5.508-1.5-.064-1.5.028-1.5-.622-1.5-.188-1.5.993-1.5-.358-1.505-.414-1.505.377-1.5-.253-1.5.233-1.5.246-1.5-.7-1.5.028-1.5-.041-1.5.544-1.5-.169-1.5-.029-1.5-.32-1.5-.037-1.5.646-1.5-.078-1.5-.35-1.5.079-1.5.456-1.5-.666-1.5.3-1.5-.327-1.5.4-1.5-.486-1.5.4-1.5.008-1.5-.374-1.506.571-1.507.183-1.506-.142-1.505-.7-1.5.649-1.5-.638-1.5.42-1.5-.466-1.5.056-1.5.877-1.5-.29-1.5.093-1.5-.274-1.5.558-1.5-.138-1.5-.775-1.5-.083-1.505.875-1.506-.763-1.507.38-1.507-.456-1.506.428-1.505.465-1.5-.762-1.5-.135-1.5.7-1.5-.276-1.5.275-1.5-.246-1.5.307-1.5-.643-1.505.217-1.508.532-1.507-.288-1.505.359-1.5-.353-1.5-.074-1.5-.312-1.5.369-1.5-.119-1.5-.313-1.5.1-1.5-.21-1.5.3-1.5-.122-.184-.012v9.961l.986-.67,1.5.507,1.5-.5,1.5.243,1.5.8,1.5-1.033,1.5-.02,1.5.269,1.5.7,1.5-.24,1.5-.7,1.5.672,1.5-.088,1.495.276,1.495-.294,1.495.357,1.495.119,1.494-.993,1.494.626,1.494-.016,1.494-.48,1.494.356,1.494.068,1.494.09,1.494-.025,1.494.22,1.494-.679,1.493.36,1.493.183,1.493.206,1.493.023,1.493-.382,1.493.254,1.493-.39,1.493.354,1.493-.573,1.493.25,1.493-.159,1.493.351,1.493-.076,1.493-.577,1.493.054,1.493.04,1.493.621,1.493-.424,1.493.016,1.493.38,1.493.306,1.493-.481,1.493-.064,1.493-.509,1.493,1.078,1.493-.594,1.493.126,1.493-.352,1.493.794,1.493-.27,1.493.092,1.493-.034,1.493-.2,1.493-.489,1.493-.07,1.493.114,1.493.726,1.493-.715,1.493.324,1.494-.123,1.494-.192,1.494.264,1.494-.36,1.494.144,1.494.069,1.494-.194,1.494.864,1.495.016,1.495-.148,1.495-.225,1.495-.541,1.5.009,1.5.187,1.5.522,1.5-.013,1.5-.546,1.5-.146,1.5.353,1.5-.336,1.5.262,1.5-.318,1.5.624,1.5-.143,1.5-.322,1.5.3,1.5.16,1.5.146,1.5-.445,1.5.643,1.5-.042,1.5-.241,1.5-.607,1.5.012,1.5.771,1.5-.6,1.5.7,1.5-1,1.5.287,1.5-.255,1.5.849,1.5-.1,1.5-.08,1.5-.466,1.5.788,1.5-.431,1.5-.6,1.5.449,1.5.259,1.5-.332,1.5.16,1.5-.2,1.5.573,1.5-.217,1.5.06,1.5.156,1.5-.393,1.5.458,1.5-.586,1.5.484,1.5.061,1.5-.72,1.5.809,1.5-1,1.5.361,1.5.446,1.5-.364,1.5-.263,1.495.192,1.5.1,1.5.533,1.5-.676,1.5-.078,1.5-.292,1.5.655,1.5-.336,1.5.66,1.5-.2,1.5.247,1.5.008,1.5-.406,1.5.173,1.5.053,1.5-.154,1.5-.617,1.5.427,1.5-.031,1.5.119,1.5-.057,1.5-.456,1.5.179,1.5.16,1.5.192,1.5-.573,1.5.511,1.5-.182,1.5-.012,1.5.011,1.5.35,1.5-.229,1.5.244,1.5-.252,1.5.347,1.5-.375,1.5.232,1.5-.017,1.5-.531,1.5-.042,1.5-.1,1.5.732,1.5-.395,1.5.23,1.5-.329,1.5.614,1.5-.8,1.5.912,1.5.017,1.5-.565,1.5.222,1.5-.437,1.5-.084,1.5.812,1.322.013Z" transform="translate(0)" fill="#fff900"/>
    <path id="路径_1060" data-name="路径 1060" d="M388.607,646.366l-.052-.023-1.5.678-1.5-.716-1.5-.01-1.5.283-1.5.513-1.5-1.029-1.5.843-1.5-.566-1.5-.182-1.5.283-1.5-.307-1.5.619-1.5-.17-1.5.1-1.5.108-1.5-.426-1.5.654-1.5-.785-1.5.291-1.5-.111-1.5.65-1.5-.185-1.495.151-1.494-.137-1.494-.619-1.494.181-1.493.085-1.493.018-1.493-.41-1.493.052-1.492.091-1.492-.132-1.492.4-1.492-.4-1.491.177-1.491-.266-1.491.23-1.491.042-1.491-.276-1.491.3-1.491.537-1.491-.181-1.491.075-1.491-.721-1.491.351-1.491-.233-1.491.319-1.491-.216-1.491.133-1.491.285-1.491-.687-1.492.188-1.492.551-1.492-.4-1.492.5-1.492-.175-1.493.418-1.493-.93-1.493.73-1.494.125-1.494-.844-1.495.514-1.495.315-1.5-.6-1.5.341-1.5-.616-1.5.03-1.5.345-1.5-.253-1.5.394-1.5.441-1.5-.067-1.5-.565-1.5.161-1.5.024-1.5-.565-1.5.58-1.5-.255-1.5-.341-1.5.954-1.5-.969-1.5.364-1.5.193-1.5-.331-1.5-.079-1.5.22-1.5.611-1.5-.386-1.5-.363-1.5.545-1.5-.035-1.5-.335-1.5-.272-1.5.423-1.5-.36-1.5.6-1.5-.038-1.5-.538-1.5.335-1.5-.364-1.5.014-1.5-.066-1.5.2-1.5.283-1.5-.226-1.5.034-1.5.566-1.5-.471-1.5.335-1.5-.5-1.5.508-1.5-.064-1.5.028-1.5-.622-1.5-.188-1.5.993-1.5-.358-1.505-.414-1.505.377-1.5-.253-1.5.233-1.5.246-1.5-.7-1.5.028-1.5-.041-1.5.544-1.5-.169-1.5-.029-1.5-.32-1.5-.037-1.5.646-1.5-.078-1.5-.35-1.5.079-1.5.456-1.5-.666-1.5.3-1.5-.327-1.5.4-1.5-.486-1.5.4-1.5.008-1.5-.374-1.506.571-1.507.183-1.506-.142-1.505-.7-1.5.649-1.5-.638-1.5.42-1.5-.466-1.5.056-1.5.877-1.5-.29-1.5.093-1.5-.274-1.5.558-1.5-.138-1.5-.775-1.5-.083-1.505.875-1.506-.763-1.507.38-1.507-.456-1.506.428-1.505.465-1.5-.762-1.5-.135-1.5.7-1.5-.276-1.5.275-1.5-.246-1.5.307-1.5-.643-1.505.217-1.508.532-1.507-.288-1.505.359-1.5-.353-1.5-.074-1.5-.312-1.5.369-1.5-.119-1.5-.313-1.5.1-1.5-.21-1.5.3-1.5-.122-.184-.011v9.961l.986-.67,1.5.507,1.5-.5,1.5.243,1.5.8,1.5-1.033,1.5-.02,1.5.269,1.5.7,1.5-.24,1.5-.7,1.5.672,1.5-.088,1.495.276,1.495-.294,1.495.357,1.495.119,1.494-.993,1.494.626L136,656.28l1.494-.48,1.494.356,1.494.068,1.494.09,1.494-.025,1.494.22,1.494-.679,1.493.36,1.493.183,1.493.206,1.493.023,1.493-.382,1.493.254,1.493-.39,1.493.354,1.493-.573,1.493.25,1.493-.159,1.493.351,1.493-.076,1.493-.577,1.493.054,1.493.04,1.493.621,1.493-.424,1.493.016,1.493.38,1.493.306,1.493-.481,1.493-.064,1.493-.509,1.493,1.078,1.493-.594,1.493.126,1.493-.352,1.493.794,1.493-.27,1.493.092,1.493-.034,1.493-.2,1.493-.489,1.493-.07,1.493.114,1.493.726,1.493-.715,1.493.324,1.494-.123,1.494-.192,1.494.264,1.494-.36,1.494.144,1.494.069,1.494-.194,1.494.864,1.495.015,1.495-.148,1.495-.225,1.495-.541,1.5.009,1.5.187,1.5.522,1.5-.013,1.5-.546,1.5-.146,1.5.353,1.5-.336,1.5.262,1.5-.318,1.5.624,1.5-.143,1.5-.322,1.5.3,1.5.16,1.5.146,1.5-.445,1.5.643,1.5-.042,1.5-.241,1.5-.606,1.5.012,1.5.771,1.5-.6,1.5.7,1.5-1,1.5.287,1.5-.255,1.5.849,1.5-.1,1.5-.08,1.5-.466,1.5.788,1.5-.431,1.5-.6,1.5.449,1.5.259,1.5-.332,1.5.16,1.5-.2,1.5.573,1.5-.217,1.5.06,1.5.156,1.5-.393,1.5.458,1.5-.586,1.5.484,1.5.061,1.5-.72,1.5.809,1.5-1,1.5.361,1.5.446,1.5-.363,1.5-.263,1.495.192,1.5.1,1.5.533,1.5-.676,1.5-.078,1.5-.292,1.5.655,1.5-.336,1.5.66,1.5-.2,1.5.247,1.5.008,1.5-.406,1.5.173,1.5.053,1.5-.154,1.5-.617,1.5.427,1.5-.031,1.5.119,1.5-.057,1.5-.456,1.5.179,1.5.16,1.5.192,1.5-.573,1.5.511,1.5-.182,1.5-.012,1.5.011,1.5.35,1.5-.229,1.5.244,1.5-.252,1.5.347,1.5-.375,1.5.232,1.5-.017,1.5-.531,1.5-.042,1.5-.1,1.5.732,1.5-.395,1.5.23,1.5-.329,1.5.614,1.5-.8,1.5.912,1.5.017,1.5-.565,1.5.223,1.5-.437,1.5-.084,1.5.812,1.322.013Z" transform="translate(0 19.894)" fill="#fff900"/>
    <path id="路径_1061" data-name="路径 1061" d="M116.493,674.339l-.428-2.873-.465-2.871.762-2.87.135-2.87-.7-2.869.276-2.853-.275-2.856.246-2.859-.307-2.863.643-2.867-.217-2.871-.532-2.876.288-2.875-.359-2.872.353-2.868.074-2.865.312-2.863-.369-2.861.119-2.86.313-2.859-.1-2.859.21-2.859-.3-2.86.122-2.862.012-.352h-9.961l.67,1.882-.507,2.856.5,2.855-.243,2.855-.8,2.855L107,621.381l.02,2.854-.269,2.854-.7,2.853.24,2.853.7,2.853-.672,2.853.088,2.852-.276,2.852.294,2.852-.358,2.851-.119,2.851.993,2.851-.626,2.851.016,2.85.48,2.85-.356,2.85-.068,2.85-.09,2.85" fill="#fff900"/>
    <path id="路径_1062" data-name="路径 1062" d="M490.057,677.306l-.428-3-.465-2.995.762-2.994.135-2.993-.7-2.992.276-2.975-.275-2.978.246-2.982-.307-2.985.643-2.99-.217-2.994-.532-3,.288-3-.359-2.995.353-2.992.074-2.989.312-2.986-.369-2.984.119-2.983.313-2.982-.1-2.982.21-2.982-.3-2.983.122-2.985.012-.367h-9.961l.67,1.963-.507,2.978.5,2.978-.243,2.977-.8,2.977,1.033,2.977.02,2.976-.269,2.976-.7,2.976.24,2.976.7,2.975-.672,2.975.088,2.974-.276,2.974.294,2.974-.358,2.974-.119,2.973.993,2.973-.626,2.973.016,2.973.48,2.973-.356,2.972-.068,2.972-.09,2.972" transform="translate(-100.116 -0.741)" fill="#fff900"/>
  </g>
</svg>
