<svg xmlns="http://www.w3.org/2000/svg" width="1921.004" height="1080.005" viewBox="0 0 1921.004 1080.005" preserveAspectRatio="none">
  <path id="联合_1" data-name="联合 1" d="M19395.086,1078h-10.123l-10.125-2-11.131,2h-10.119l-10.125-1h-10.119l-10.123-1-11.137,2-.086-.011V0h1920V540H21232v511.939l-9.91-2.936h-10.125l-10.119,2-10.119,2-10.123-4-11.133,3-10.123-2h-10.119l-10.129,1-11.133-1-10.117,3.005-10.125-1-10.119,1h-10.123l-11.133-1-10.123,2-10.125-3-10.119,2-10.123-1-10.119,3h-31.375l-10.129-2h-10.119l-10.125,1h-11.131l-10.119-1h-10.123l-10.119,1-10.125-1-10.119,2-11.141-2-10.119,1-10.125-1-10.119,1-10.119,1-10.123-1-10.119,1-11.143,3-10.119-1H20800l-10.119-2-10.119,1-10.125-1-10.117,2-11.143-1-10.119,1-10.125,1-10.117-3-10.125,1-10.119,3-10.119-2-11.137,3-10.123-1-10.125,2-10.119-4-10.123,3-10.119,1-11.131-2.995-10.125,2-10.119,1-10.129-2-10.119,2L20564.16,1058l-11.131,1-10.119,1-10.123-1-10.119,2-10.125,2h-11.137l-10.119-2h-10.123l-10.119,1.007-11.137-2-10.119,2L20439.66,1061l-10.119-1-10.119,4-11.137-4-10.119,2-10.123,1-10.119-1-11.137-1.007-10.125,1.007-10.119,2.995-10.123-1-10.119-2-10.125,2.995h-11.131l-10.119-1-10.129-1-10.119,1-10.125-1-11.131,3.005H20243.3l-10.123-2-10.119,1-10.125-1h-21.256l-10.123,1-10.119,1.007-10.125-1.007-10.119,1.007-11.141,2-10.119-2-10.125,2-10.119-2-10.117,2h-21.256l-10.125-2-10.119-1.007-11.137,5-10.123-1.993-10.119-1-10.125,2-11.131-1-10.119,1-10.129,1L19975.07,1067h-21.256l-10.123,2.995-10.119-1h-10.119l-11.143-1h-10.119l-10.123,3h-10.119l-10.125-2-11.131,1-10.125,2-10.117-3-10.125,2-10.119-1.007L19809.07,1071l-10.123-1.007-10.119,1.007H19778.7l-11.131-1.007-10.125,3.005-10.119,1-10.123-1-11.131-3.005-10.125,3.005-10.119-2-10.123,2-10.119-2h-11.143l-10.119,4-10.119-1h-10.123l-11.133-1-10.123,3h-10.119l-10.129-4h-11.133l-10.117,4-10.125-3-10.119,2-11.131-2-10.125,2-10.123,2-10.125-3.005h-10.119l-11.137,3.005-10.119-1-10.117,1-10.125-1-11.137,2-10.125-3-10.117,1-10.125,2-10.119-1-11.131,2Z" transform="translate(-19311.498 0.5)" stroke="rgba(0,0,0,0)" stroke-miterlimit="10" stroke-width="1"/>
</svg>
